<svg width="24" height="24" viewBox="0 0 24 24" fill="none" xmlns="http://www.w3.org/2000/svg">
<g clip-path="url(#clip0_1_8081)">
<path d="M10.2811 6.63882C10.6202 6.97784 10.6202 7.53266 10.2811 7.87174L8.69596 9.4569C8.35688 9.79592 7.80212 9.79592 7.46304 9.4569L1.07848 3.07228C0.739465 2.73326 0.739465 2.17844 1.07848 1.83936L2.66358 0.25426C3.00266 -0.0847532 3.55742 -0.0847532 3.8965 0.25426L10.2811 6.63882Z" fill="#020A13"/>
<path d="M11.9283 11.8345C8.5689 11.8345 5.84555 14.5579 5.84555 17.9173C5.84555 21.2767 8.5689 24.0001 11.9283 24.0001C15.2877 24.0001 18.0111 21.2768 18.0111 17.9173C18.0111 14.5579 15.2877 11.8345 11.9283 11.8345ZM15.0058 17.2427L14.133 17.8769C13.7234 18.1745 13.5163 18.8119 13.6727 19.2935L14.0061 20.3195C14.1625 20.8011 13.9554 20.9515 13.5458 20.6539L12.673 20.0198C12.2633 19.7222 11.5931 19.7222 11.1835 20.0198L10.3107 20.6539C9.90111 20.9515 9.69397 20.8011 9.8504 20.3195L10.1838 19.2935C10.3403 18.8119 10.1331 18.1745 9.72354 17.8769L8.85072 17.2427C8.44114 16.9452 8.52025 16.7017 9.02649 16.7017H10.1054C10.6117 16.7017 11.1539 16.3077 11.3104 15.8262L11.6437 14.8002C11.8002 14.3187 12.0562 14.3187 12.2127 14.8002L12.5461 15.8262C12.7025 16.3077 13.2448 16.7017 13.751 16.7017H14.8299C15.3363 16.7017 15.4154 16.9452 15.0058 17.2427Z" fill="#020A13"/>
<path d="M22.9219 1.86593L21.3368 0.280831C20.9977 -0.0582463 20.4419 -0.0592103 20.1016 0.278582L10.4409 9.86953C10.4409 9.86953 9.66433 10.6083 10.7892 10.2913C11.2421 10.1636 11.7242 10.1228 12.2154 10.1228C13.1614 10.1228 13.9388 10.2835 14.7372 10.6688C14.8222 10.7098 15.0662 10.8522 15.4306 10.5315L22.9196 3.0966C23.2599 2.75874 23.2609 2.20501 22.9219 1.86593Z" fill="#020A13"/>
</g>
<defs>
<clipPath id="clip0_1_8081">
<rect width="24" height="24" fill="white"/>
</clipPath>
</defs>
</svg>
