<svg width="24" height="24" viewBox="0 0 24 24" fill="none" xmlns="http://www.w3.org/2000/svg">
<g clip-path="url(#clip0_1_8097)">
<path d="M7.27143 7.31301C7.27143 8.99289 6.11835 10.3548 4.69599 10.3548C3.27375 10.3548 2.12091 8.99289 2.12091 7.31301C2.12091 5.63325 3.27375 4.27148 4.69599 4.27148C6.11835 4.27148 7.27143 5.63325 7.27143 7.31301Z" fill="#020A13"/>
<path d="M7.63018 12.6769C7.81618 12.5635 8.02198 12.4896 8.2351 12.4543C7.80238 11.8437 7.49578 11.1888 7.31866 10.4049C7.27018 10.1185 6.87802 10.0849 6.58642 10.3225C6.0409 10.7672 5.40454 11.0648 4.69462 11.0648C3.97102 11.0648 3.30538 10.7769 2.77174 10.2951C2.60146 10.1413 2.35054 10.118 2.15458 10.2377C1.14142 10.8566 0.3745 11.8389 0.0399398 13.0057C-0.0499402 13.3183 0.0131811 13.6561 0.209261 13.9163C0.405581 14.1762 0.712302 14.3294 1.03798 14.3294H5.67814C6.23362 13.6886 6.88918 13.1292 7.63018 12.6769Z" fill="#020A13"/>
<path d="M16.7305 7.31301C16.7305 8.99289 17.8834 10.3548 19.3058 10.3548C20.7283 10.3548 21.881 8.99289 21.881 7.31301C21.881 5.63325 20.7283 4.27148 19.3058 4.27148C17.8834 4.27148 16.7305 5.63325 16.7305 7.31301Z" fill="#020A13"/>
<path d="M16.3704 12.6769C16.1844 12.5635 15.9784 12.4896 15.7654 12.4543C16.1982 11.8437 16.5048 11.1888 16.6819 10.4049C16.7305 10.1185 17.1226 10.0849 17.4142 10.3225C17.9598 10.7672 18.596 11.0648 19.3059 11.0648C20.0294 11.0648 20.6952 10.7769 21.2289 10.2951C21.3992 10.1413 21.65 10.118 21.846 10.2377C22.8592 10.8566 23.6263 11.8389 23.9606 13.0057C24.0504 13.3183 23.9874 13.6561 23.7914 13.9163C23.595 14.1762 23.2884 14.3294 22.9628 14.3294H18.3224C17.7669 13.6886 17.1115 13.1292 16.3704 12.6769Z" fill="#020A13"/>
<path d="M19.017 17.6941C18.5132 15.9356 17.3706 14.4487 15.8579 13.4951C15.5594 13.3071 15.1721 13.3375 14.9074 13.5708C14.0954 14.2859 13.0908 14.7115 12 14.7115C10.8877 14.7115 9.86507 14.2692 9.04487 13.5289C8.78303 13.2924 8.39771 13.2567 8.09663 13.4408C6.53939 14.3917 5.36075 15.9013 4.84679 17.6942C4.70867 18.1752 4.80551 18.6936 5.10671 19.0937C5.40863 19.4933 5.87987 19.7286 6.38051 19.7286H17.4833C17.984 19.7286 18.4556 19.494 18.7574 19.0937C19.0587 18.6935 19.1551 18.1755 19.017 17.6941Z" fill="#020A13"/>
<path d="M15.9581 8.9456C15.9581 11.5272 14.1862 13.6202 12.0004 13.6202C9.81471 13.6202 8.04291 11.5272 8.04291 8.9456C8.04291 6.3638 9.81471 4.27148 12.0004 4.27148C14.1863 4.27148 15.9581 6.36392 15.9581 8.9456Z" fill="#020A13"/>
</g>
<defs>
<clipPath id="clip0_1_8097">
<rect width="24" height="24" fill="white"/>
</clipPath>
</defs>
</svg>
