<svg width="24" height="22" viewBox="0 0 24 22" fill="none" xmlns="http://www.w3.org/2000/svg">
<path d="M11.999 6.20109C13.7087 6.20109 15.0995 4.81017 15.0995 3.10055C15.0995 1.39092 13.7086 0 11.999 0C10.2893 0 8.89844 1.39092 8.89844 3.10055C8.89844 4.81017 10.2893 6.20109 11.999 6.20109Z" fill="#020A13"/>
<path d="M6.99845 13.6689H16.9988C17.4122 13.6689 17.7473 13.3338 17.7473 12.9205C17.7473 9.75066 15.1684 7.17188 11.9987 7.17188C8.82888 7.17188 6.25 9.75066 6.25 12.9205C6.25 13.3338 6.58511 13.6689 6.99845 13.6689Z" fill="#020A13"/>
<path d="M15.0219 16.5419L13.3985 16.3059L12.6725 14.835C12.3984 14.2794 11.6042 14.2798 11.3302 14.835L10.6042 16.3059L8.98086 16.5419C8.36787 16.6309 8.12276 17.3864 8.56606 17.8185L9.7407 18.9635L9.46339 20.5803C9.35867 21.1908 10.0014 21.6573 10.5493 21.3693L12.0013 20.606L13.4533 21.3693C13.9969 21.655 14.6448 21.1954 14.5393 20.5803L14.262 18.9635L15.4366 17.8185C15.8802 17.386 15.6345 16.6309 15.0219 16.5419Z" fill="#020A13"/>
<path d="M6.68201 16.5421L5.05863 16.3061L4.33263 14.8352C4.05851 14.2797 3.2643 14.28 2.99032 14.8352L2.26437 16.3061L0.640992 16.5421C0.0280075 16.6311 -0.217055 17.3866 0.226195 17.8187L1.40084 18.9637L1.12352 20.5805C1.0188 21.191 1.66151 21.6575 2.20948 21.3695L3.66148 20.6061L5.11348 21.3695C5.65699 21.6552 6.30495 21.1956 6.19943 20.5805L5.92212 18.9637L7.0968 17.8187C7.54038 17.3862 7.29462 16.6311 6.68201 16.5421Z" fill="#020A13"/>
<path d="M23.3597 16.5419L21.7364 16.306L21.0104 14.835C20.7856 14.3794 20.2893 14.4178 20.3393 14.4178C20.0544 14.4178 19.7942 14.5796 19.6681 14.835L18.9421 16.306L17.3187 16.5419C16.7057 16.631 16.4607 17.3864 16.9039 17.8185L18.0787 18.9635L17.8014 20.5804C17.6966 21.1909 18.3393 21.6574 18.8873 21.3694L20.3393 20.606L21.7913 21.3694C22.3348 21.6551 22.9828 21.1955 22.8773 20.5804L22.5999 18.9635L23.7746 17.8185C24.2181 17.3862 23.9724 16.6309 23.3597 16.5419Z" fill="#020A13"/>
</svg>
