<svg width="36" height="38" viewBox="0 0 36 38" fill="none" xmlns="http://www.w3.org/2000/svg">
<path fill-rule="evenodd" clip-rule="evenodd" d="M30.3617 0.572644C29.303 -0.0201999 28.1758 -0.0799041 26.9844 0.0690018C25.8526 0.210452 24.4758 0.568313 22.8212 0.998393L18.9528 2.00368C17.2989 2.43346 15.9217 2.79132 14.868 3.21791C13.7601 3.66645 12.8022 4.26911 12.1809 5.31291C11.5556 6.3633 11.4936 7.48619 11.6494 8.65906C11.7963 9.7649 12.1671 11.1069 12.6088 12.7056L13.6487 16.4697C14.0906 18.0694 14.4612 19.411 14.9038 20.4391C15.3736 21.5309 16.0013 22.4603 17.0662 23.0565C18.1248 23.6494 19.252 23.7092 20.4435 23.5602C21.5751 23.4188 22.9521 23.0609 24.6065 22.6308L28.4751 21.6256C30.129 21.1957 31.5062 20.8378 32.5598 20.4114C33.6676 19.9627 34.6255 19.3601 35.2469 18.3162C35.8721 17.2659 35.9342 16.1429 35.7784 14.9701C35.6314 13.8643 35.2607 12.5224 34.8189 10.9236L33.7789 7.15944C33.3372 5.55987 32.9665 4.21812 32.5241 3.18999C32.0541 2.09831 31.4266 1.16896 30.3617 0.572644ZM23.4504 3.80535C25.2231 3.34464 26.4176 3.03721 27.3409 2.92181C28.2256 2.81123 28.6492 2.90873 28.957 3.08112C29.2587 3.25004 29.5466 3.54451 29.8833 4.32657C30.2383 5.15139 30.5588 6.29978 31.0347 8.02217L32.0206 11.5911C32.4967 13.314 32.8108 14.4634 32.9285 15.3489C33.0401 16.1897 32.9402 16.5707 32.7765 16.8458C32.6088 17.1273 32.3048 17.4127 31.4809 17.7464C30.6228 18.0939 29.4304 18.4067 27.6571 18.8675L23.9775 19.8239C22.2046 20.2847 21.0101 20.5921 20.0869 20.7075C19.2021 20.8181 18.7787 20.7205 18.4707 20.548C18.1692 20.3792 17.8812 20.0847 17.5446 19.3026C17.1896 18.4778 16.869 17.3294 16.3931 15.607L15.4071 12.0381C14.9312 10.3153 14.617 9.16583 14.4993 8.28042C14.3876 7.4395 14.4876 7.05849 14.6513 6.78349C14.819 6.50185 15.1229 6.2164 15.9469 5.88279C16.8051 5.53534 17.9975 5.22246 19.7706 4.76165L23.4504 3.80535Z" fill="#020A13"/>
<path fill-rule="evenodd" clip-rule="evenodd" d="M1.82218 4.74316C1.05718 4.53093 0.264942 4.97902 0.0526902 5.74402C-0.159561 6.50904 0.288536 7.30128 1.05355 7.51351L4.31898 8.4195C5.13471 8.64582 5.74218 9.26202 5.9497 10.0132L9.68971 23.5509C9.54602 23.579 9.4024 23.6118 9.25903 23.6492C5.46969 24.634 3.15413 28.4458 4.19436 32.2111C5.22959 35.9582 9.16579 38.1194 12.9401 37.1385C16.2432 36.2802 18.4265 33.2737 18.2434 30.0225L34.3827 25.8282C35.1511 25.6285 35.6122 24.8436 35.4125 24.0752C35.2128 23.3069 34.4279 22.8459 33.6595 23.0456L17.4865 27.2487C16.5123 25.3563 14.7228 24.0402 12.6824 23.5869L8.72089 9.24759C8.23573 7.49148 6.84497 6.13673 5.0876 5.64915L1.82218 4.74316ZM9.98217 26.4316C12.3046 25.828 14.6352 27.176 15.2337 29.3421C15.8271 31.4901 14.5244 33.7563 12.217 34.3559C9.8945 34.9594 7.56395 33.6114 6.96555 31.4454C6.37215 29.2976 7.6747 27.0313 9.98217 26.4316Z" fill="#020A13"/>
</svg>
