<svg width="35" height="41" viewBox="0 0 35 41" fill="none" xmlns="http://www.w3.org/2000/svg">
<path fill-rule="evenodd" clip-rule="evenodd" d="M26.6276 6.75371C26.1918 3.81214 23.0178 2.05902 20.291 3.25881C20.2622 3.27149 20.2329 3.28323 20.2033 3.29399C18.3047 3.98439 16.3756 3.98439 14.477 3.29399L14.4523 3.28473C11.5237 2.15836 8.47955 3.97989 8.05159 6.76162C8.04486 6.80536 8.03612 6.84876 8.02538 6.89169L7.90521 7.37236C7.68814 9.19153 6.6212 10.9262 5.21239 11.9912L4.51005 12.553C2.35139 14.28 2.35236 17.5104 4.38144 19.2326L5.06866 19.7824C6.47746 20.8474 7.54439 22.5821 7.76147 24.4012L7.88163 24.8819C7.89301 24.9274 7.90216 24.9735 7.90903 25.0199C8.34482 27.9614 11.5188 29.7146 14.2456 28.5148C14.2744 28.5021 14.3037 28.4904 14.3333 28.4796C16.2319 27.7892 18.161 27.7892 20.0596 28.4796L20.0843 28.4889C23.0129 29.6152 26.0571 27.7937 26.485 25.012C26.4917 24.9682 26.5005 24.9248 26.5112 24.8819L26.6314 24.4012C26.8494 22.5738 27.925 20.8317 29.3433 19.768C29.3646 19.7521 29.3863 19.7367 29.4084 19.722L30.2307 19.1738C32.4607 17.4434 32.4495 14.2901 30.1971 12.574L30.1703 12.553L29.468 11.9912C28.0592 10.9262 26.9922 9.19154 26.7751 7.37236L26.655 6.89169C26.6436 6.84617 26.6344 6.80012 26.6276 6.75371ZM29.4603 6.25914C28.7076 1.4998 23.6079 -1.30531 19.1809 0.60645C17.9346 1.05031 16.7174 1.04688 15.4708 0.596148C10.9503 -1.13319 5.98051 1.60863 5.22098 6.25537L5.09247 6.7694C5.07558 6.83697 5.06362 6.90569 5.05669 6.97501C4.95596 7.98228 4.32128 9.06581 3.4683 9.70554C3.45633 9.71452 3.44449 9.72369 3.4328 9.73304L2.71406 10.308C-0.872753 13.1775 -0.878264 18.5621 2.54236 21.4426C2.55158 21.4504 2.56089 21.458 2.57031 21.4655L3.28906 22.0405C3.30074 22.0499 3.31258 22.0591 3.32455 22.068C4.17753 22.7078 4.81221 23.7913 4.91294 24.7986C4.91987 24.8679 4.93183 24.9366 4.94872 25.0042L5.07629 25.5145C5.82897 30.2738 10.9286 33.0789 15.3557 31.1672C16.6019 30.7233 17.8191 30.7267 19.0658 31.1774C23.5863 32.9068 28.5561 30.165 29.3156 25.5182L29.4441 25.0042C29.461 24.9366 29.473 24.8679 29.4799 24.7986C29.5795 23.8028 30.2009 22.7325 31.0392 22.0901L31.8657 21.5391C31.8908 21.5223 31.9154 21.5048 31.9395 21.4865C35.7086 18.6148 35.7133 13.1761 31.9537 10.298L31.2476 9.73304C31.2359 9.72369 31.224 9.71452 31.2121 9.70554C30.3591 9.06581 29.7244 7.98228 29.6237 6.97501C29.6167 6.90569 29.6048 6.83697 29.5879 6.7694L29.4603 6.25914Z" fill="#020A13"/>
<path fill-rule="evenodd" clip-rule="evenodd" d="M8.6433 27.3868C9.43721 27.3868 10.0808 28.0304 10.0808 28.8243V36.5609L16.6254 33.2886C17.0301 33.0862 17.5065 33.0862 17.9112 33.2886L24.4558 36.5609V28.8243C24.4558 28.0304 25.0994 27.3868 25.8933 27.3868C26.6872 27.3868 27.3308 28.0304 27.3308 28.8243V38.8868C27.3308 39.385 27.0728 39.8477 26.649 40.1096C26.2252 40.3715 25.696 40.3953 25.2504 40.1725L17.2683 36.1815L9.28617 40.1725C8.84056 40.3953 8.31136 40.3715 7.88756 40.1096C7.46377 39.8477 7.2058 39.385 7.2058 38.8868V28.8243C7.2058 28.0304 7.84939 27.3868 8.6433 27.3868Z" fill="#020A13"/>
<path fill-rule="evenodd" clip-rule="evenodd" d="M17.2683 8.69929C18.0622 8.69929 18.7058 9.34288 18.7058 10.1368V11.5743C18.7058 12.3682 18.0622 13.0118 17.2683 13.0118C16.4744 13.0118 15.8308 12.3682 15.8308 11.5743V10.1368C15.8308 9.34288 16.4744 8.69929 17.2683 8.69929Z" fill="#020A13"/>
<path fill-rule="evenodd" clip-rule="evenodd" d="M17.2683 18.7618C18.0622 18.7618 18.7058 19.4054 18.7058 20.1993V21.6368C18.7058 22.4307 18.0622 23.0743 17.2683 23.0743C16.4744 23.0743 15.8308 22.4307 15.8308 21.6368V20.1993C15.8308 19.4054 16.4744 18.7618 17.2683 18.7618Z" fill="#020A13"/>
<path fill-rule="evenodd" clip-rule="evenodd" d="M12.9558 13.7305C12.9558 11.7866 14.6056 10.1368 16.5496 10.1368H18.7058C19.4997 10.1368 20.1433 10.7804 20.1433 11.5743C20.1433 12.3682 19.4997 13.0118 18.7058 13.0118H16.5496C16.1935 13.0118 15.8308 13.3745 15.8308 13.7305C15.8308 14.0866 16.1935 14.4493 16.5496 14.4493H17.9871C19.931 14.4493 21.5808 16.0991 21.5808 18.043C21.5808 19.987 19.931 21.6368 17.9871 21.6368H15.8308C15.0369 21.6368 14.3933 20.9932 14.3933 20.1993C14.3933 19.4054 15.0369 18.7618 15.8308 18.7618H17.9871C18.3431 18.7618 18.7058 18.3991 18.7058 18.043C18.7058 17.687 18.3431 17.3243 17.9871 17.3243H16.5496C14.6056 17.3243 12.9558 15.6745 12.9558 13.7305Z" fill="#020A13"/>
</svg>
