<svg width="36" height="40" viewBox="0 0 36 40" fill="none" xmlns="http://www.w3.org/2000/svg">
<path d="M10.7333 18.4C6.49919 18.4 3.06667 14.9675 3.06667 10.7333V4.6C3.06667 3.75329 3.75329 3.06667 4.6 3.06667H6.13333C6.98004 3.06667 7.66667 2.38004 7.66667 1.53333C7.66667 0.686627 6.98004 0 6.13333 0H4.6C2.05957 0 0 2.05957 0 4.6V10.7333C0.00398667 14.2496 1.73512 17.5398 4.63067 19.5347C7.40017 21.9763 9.05096 25.4441 9.2 29.1333C9.2 35.0612 14.0055 39.8667 19.9333 39.8667C25.8612 39.8667 30.6667 35.0612 30.6667 29.1333V27.3853C33.9465 26.5386 35.9186 23.1932 35.0719 19.9134C34.2249 16.6336 30.8798 14.6614 27.6 15.5081C24.3202 16.3551 22.348 19.7003 23.1947 22.9801C23.7526 25.1405 25.4395 26.8275 27.6 27.3853V29.1333C27.6 33.3675 24.1675 36.8 19.9333 36.8C15.6992 36.8 12.2667 33.3675 12.2667 29.1333C12.4234 25.4395 14.0858 21.9708 16.8667 19.5347C19.7506 17.5327 21.4697 14.2441 21.4667 10.7333V4.6C21.4667 2.05957 19.4071 0 16.8667 0H15.3333C14.4866 0 13.8 0.686627 13.8 1.53333C13.8 2.38004 14.4866 3.06667 15.3333 3.06667H16.8667C17.7134 3.06667 18.4 3.75329 18.4 4.6V10.7333C18.4 14.9675 14.9675 18.4 10.7333 18.4ZM29.1333 24.5333C27.4396 24.5333 26.0667 23.1604 26.0667 21.4667C26.0667 19.7729 27.4396 18.4 29.1333 18.4C30.8271 18.4 32.2 19.7729 32.2 21.4667C32.2 23.1604 30.8271 24.5333 29.1333 24.5333Z" fill="#020A13"/>
</svg>
